<svg fill="none" height="100" viewBox="0 0 100 100" width="100" xmlns="http://www.w3.org/2000/svg"><path d="m6 24c0-5.5228 4.4772-10 10-10h59c5.5229 0 10 4.4772 10 10v51c0 5.5229-4.4771 10-10 10h-59c-5.5228 0-10-4.4771-10-10z" fill="#f2f2f2"/><path d="m85 29h-79v-5c0-5.5228 4.4772-10 10-10h59c5.5229 0 10 4.4772 10 10z" fill="#2f80ed"/><path d="m20 9.5c0-1.933 1.567-3.5 3.5-3.5s3.5 1.567 3.5 3.5v11c0 1.933-1.567 3.5-3.5 3.5s-3.5-1.567-3.5-3.5z" fill="#f3c51f"/><path d="m42 9.5c0-1.933 1.567-3.5 3.5-3.5s3.5 1.567 3.5 3.5v11c0 1.933-1.567 3.5-3.5 3.5s-3.5-1.567-3.5-3.5z" fill="#f3c51f"/><path d="m64 9.5c0-1.933 1.567-3.5 3.5-3.5s3.5 1.567 3.5 3.5v11c0 1.933-1.567 3.5-3.5 3.5s-3.5-1.567-3.5-3.5z" fill="#f3c51f"/><g fill="#6fa2dd"><rect height="11" rx="3" width="11" x="14" y="37"/><rect height="11" rx="3" width="11" x="14" y="51"/><rect height="11" rx="3" width="11" x="14" y="65"/><rect height="11" rx="3" width="11" x="30" y="37"/><rect height="11" rx="3" width="11" x="30" y="51"/><rect height="11" rx="3" width="11" x="30" y="65"/><rect height="11" rx="3" width="11" x="46" y="37"/><rect height="11" rx="3" width="11" x="46" y="51"/><rect height="11" rx="3" width="11" x="62" y="37"/></g><path d="m94 74.0255c0 11.0316-8.9543 19.9745-20 19.9745s-20-8.9429-20-19.9745 18.2143-36.0255 20-36.0255 20 24.9939 20 36.0255z" fill="#2f80ed"/><path clip-rule="evenodd" d="m61.7018 69.6695c.5334.1429.85.6912.7071 1.2247-.2714 1.013-.4089 2.0571-.4089 3.1058 0 .5523-.4477 1-1 1s-1-.4477-1-1c0-1.2235.1604-2.4416.477-3.6234.143-.5335.6913-.8501 1.2248-.7071z" fill="#f2f2f2" fill-rule="evenodd"/><path clip-rule="evenodd" d="m61.1838 76.3987c.5335-.1429 1.0818.1736 1.2248.7071.5451 2.0347 1.6163 3.89 3.1058 5.3795 1.4895 1.4894 3.3448 2.5606 5.3794 3.1058.5335.1429.8501.6913.7071 1.2247-.1429.5335-.6912.8501-1.2247.7071-2.3738-.636-4.5383-1.8857-6.276-3.6234-1.7378-1.7377-2.9874-3.9023-3.6235-6.2761-.1429-.5334.1736-1.0818.7071-1.2247z" fill="#f2f2f2" fill-rule="evenodd"/></svg>