<svg
        width="217"
        height="160"
        viewBox="0 0 217 160"
        fill="none"
        xmlns="http://www.w3.org/2000/svg"
        xmlns:xlink="http://www.w3.org/1999/xlink"
        style="fill: #1976D2"
>
    <defs>
        <radialGradient id="radial-gradient-1" cx="0" cy="0" r="1" gradientUnits="userSpaceOnUse" gradientTransform="translate(181.987 46.1789) rotate(-46.0086) scale(33.1225 26.6044)">
            <stop offset="0.109324" stop-color="#6DB1F4"/>
            <stop offset="1" stop-color="#1976D2"/>
        </radialGradient>
        <radialGradient id="radial-gradient-2" cx="0" cy="0" r="1" gradientUnits="userSpaceOnUse" gradientTransform="translate(181.905 50.9974) rotate(-46.025) scale(28.9908 23.2853)">
            <stop offset="0.109324" stop-color="#6DB1F4"/>
            <stop offset="1" stop-color="#1976D2"/>
        </radialGradient>
        <radialGradient id="radial-gradient-3" cx="0" cy="0" r="1" gradientUnits="userSpaceOnUse" gradientTransform="translate(181.988 46.115) rotate(-46.0078) scale(33.1222 26.6042)">
            <stop offset="0.109324" stop-color="#6DB1F4"/>
            <stop offset="1" stop-color="#1976D2"/>
        </radialGradient>
        <radialGradient id="radial-gradient-4" cx="0" cy="0" r="1" gradientUnits="userSpaceOnUse" gradientTransform="translate(187.428 31.6666) rotate(51.5592) scale(16.8438 3.81296)">
            <stop stop-color="white"/>
            <stop offset="0.601048" stop-color="#BDDBF1" stop-opacity="0.28"/>
            <stop offset="1" stop-color="#5686F5" stop-opacity="0"/>
        </radialGradient>
        <radialGradient id="radial-gradient-5" cx="0" cy="0" r="1" gradientUnits="userSpaceOnUse" gradientTransform="translate(175.06 47.3331) rotate(50.1428) scale(11.7082 11.638)">
            <stop stop-color="white"/>
            <stop offset="0.601048" stop-color="#BDDBF1" stop-opacity="0.28"/>
            <stop offset="1" stop-color="#5686F5" stop-opacity="0"/>
        </radialGradient>
        <radialGradient id="radial-gradient-6" cx="0" cy="0" r="1" gradientUnits="userSpaceOnUse" gradientTransform="translate(137.302 117.6) rotate(-46.0086) scale(83.4903 67.0605)">
            <stop offset="0.109324" stop-color="#6DB1F4"/>
            <stop offset="1" stop-color="#1976D2"/>
        </radialGradient>
        <radialGradient id="radial-gradient-7" cx="0" cy="0" r="1" gradientUnits="userSpaceOnUse" gradientTransform="translate(137.096 129.745) rotate(-46.025) scale(73.0757 58.6942)">
            <stop offset="0.109324" stop-color="#6DB1F4"/>
            <stop offset="1" stop-color="#1976D2"/>
        </radialGradient>
        <radialGradient id="radial-gradient-8" cx="0" cy="0" r="1" gradientUnits="userSpaceOnUse" gradientTransform="translate(137.303 117.439) rotate(-46.0082) scale(83.4898 67.0601)">
            <stop offset="0.109324" stop-color="#6DB1F4"/>
            <stop offset="1" stop-color="#1976D2"/>
        </radialGradient>
        <radialGradient id="radial-gradient-9" cx="0" cy="0" r="1" gradientUnits="userSpaceOnUse" gradientTransform="translate(151.022 81.0195) rotate(51.5592) scale(42.4575 9.61115)">
            <stop stop-color="white"/>
            <stop offset="0.601048" stop-color="#BDDBF1" stop-opacity="0.28"/>
            <stop offset="1" stop-color="#5686F5" stop-opacity="0"/>
        </radialGradient>
        <radialGradient id="radial-gradient-10" cx="0" cy="0" r="1" gradientUnits="userSpaceOnUse" gradientTransform="translate(119.845 120.51) rotate(50.1428) scale(29.5123 29.3353)">
            <stop stop-color="white"/>
            <stop offset="0.601048" stop-color="#BDDBF1" stop-opacity="0.28"/>
            <stop offset="1" stop-color="#5686F5" stop-opacity="0"/>
        </radialGradient>
    </defs>
    <path d="M198.478 40.5719C198.478 49.6797 191.095 57.0631 181.987 57.0631C172.879 57.0631 165.496 49.6797 165.496 40.5719C165.496 32.4035 171.067 27.015 179.116 18.912C180.696 17.3209 183.283 17.3152 184.868 18.9018C192.855 26.8966 198.478 32.414 198.478 40.5719Z" fill="url(#radial-gradient-1)"/>
    <g opacity="0.8">
        <path style="filter: url(#gaussian-blur-1);" d="M196.335 46.0884C196.335 54.0624 189.874 60.5265 181.905 60.5265C173.936 60.5265 167.475 54.0624 167.475 46.0884C167.475 39.0597 172.184 34.3819 179.032 27.4881C180.614 25.8965 183.202 25.8904 184.787 27.4779C191.584 34.2836 196.335 39.0699 196.335 46.0884Z" fill="url(#radial-gradient-2)"/>
    </g>
    <g >
        <path style="filter: url(#gaussian-blur-2); mix-blend-mode: color-burn;" fill-rule="evenodd" clip-rule="evenodd" d="M197.584 45.8784C194.572 49.8307 189.814 52.3814 184.461 52.3814C175.353 52.3814 167.97 44.998 167.97 35.8902C167.97 33.7787 168.342 31.853 169.033 30.0181C166.791 33.279 165.496 36.5704 165.496 40.5078C165.496 49.6156 172.88 56.999 181.987 56.999C189.215 56.999 195.357 52.3495 197.584 45.8784Z" fill="url(#radial-gradient-3)"/>
    </g>
    <g opacity="0.3" style="mix-blend-mode: screen">
        <circle cx="187.428" cy="31.6666" r="15.6666" fill="url(#radial-gradient-4)"/>
    </g>
    <g opacity="0.7"  style="mix-blend-mode: screen">
        <circle style="filter: url(#gaussian-blur-3);" cx="175.06" cy="47.3331" r="15.6666" fill="url(#radial-gradient-5)"/>
    </g>
    <path d="M178.871 103.467C178.871 126.424 160.26 145.035 137.302 145.035C114.344 145.035 95.7334 126.424 95.7334 103.467C95.7334 81.4286 111.821 67.4182 134.437 44.4529C136.01 42.855 138.599 42.8494 140.178 44.4414C162.608 67.0498 178.871 81.4399 178.871 103.467Z" fill="url(#radial-gradient-6)"/>
    <g opacity="0.8">
        <path style="filter: url(#gaussian-blur-4);" d="M173.469 117.371C173.469 137.471 157.184 153.765 137.096 153.765C117.008 153.765 100.724 137.471 100.724 117.371C100.724 98.1943 114.63 85.9602 134.229 66.0705C135.803 64.4725 138.394 64.4666 139.975 66.059C159.413 85.6435 173.469 98.2054 173.469 117.371Z" fill="url(#radial-gradient-7)"/>
    </g>
    <g >
        <path style="filter: url(#gaussian-blur-5); mix-blend-mode: color-burn;" fill-rule="evenodd" clip-rule="evenodd" d="M176.617 116.843C169.023 126.805 157.032 133.234 143.538 133.234C120.58 133.234 101.97 114.624 101.97 91.6658C101.97 86.3431 102.908 81.4887 104.65 76.8633C98.9976 85.0831 95.7346 93.3799 95.7346 103.305C95.7346 126.263 114.346 144.873 137.303 144.873C155.521 144.873 171.002 133.154 176.617 116.843Z" fill="url(#radial-gradient-8)"/>
    </g>
    <g opacity="0.3" style="mix-blend-mode: screen">
        <circle cx="151.022" cy="81.0195" r="39.4902" fill="url(#radial-gradient-9)"/>
    </g>
    <g opacity="0.7" style="mix-blend-mode: screen">
        <circle style="filter: url(#gaussian-blur-6);" cx="119.845" cy="120.51" r="39.4902" fill="url(#radial-gradient-10)"/>
    </g>
    <filter id="gaussian-blur-1">
        <feGaussianBlur in="SourceGraphic" stdDeviation="50" />
    </filter>
    <filter id="gaussian-blur-2">
        <feGaussianBlur in="SourceGraphic" stdDeviation="5" />
    </filter>
    <filter id="gaussian-blur-3">
        <feGaussianBlur in="SourceGraphic" stdDeviation="25" />
    </filter>
    <filter id="gaussian-blur-4">
        <feGaussianBlur in="SourceGraphic" stdDeviation="50" />
    </filter>
    <filter id="gaussian-blur-5">
        <feGaussianBlur in="SourceGraphic" stdDeviation="5" />
    </filter>
    <filter id="gaussian-blur-6">
        <feGaussianBlur in="SourceGraphic" stdDeviation="25" />
    </filter>
</svg>
